<svg width="512" height="512" viewBox="0 0 512 512" fill="none" xmlns="http://www.w3.org/2000/svg">
    <!-- Background -->
    <rect width="512" height="512" rx="100" fill="#3b82f6" />

    <!-- Graduation Cap Icon -->
    <g transform="translate(80, 140)">
        <!-- Cap base -->
        <path d="M176 100 L352 50 L176 0 L0 50 Z" fill="#ffffff" opacity="0.95" />

        <!-- Cap top -->
        <path d="M176 100 L176 180 L240 200 L240 120 Z" fill="#ffffff" opacity="0.85" />

        <!-- Book pages -->
        <rect x="20" y="180" width="130" height="150" rx="5" fill="#ffffff" opacity="0.9" />
        <rect x="25" y="185" width="120" height="5" fill="#3b82f6" opacity="0.3" />
        <rect x="25" y="200" width="120" height="5" fill="#3b82f6" opacity="0.3" />
        <rect x="25" y="215" width="120" height="5" fill="#3b82f6" opacity="0.3" />
        <rect x="25" y="230" width="90" height="5" fill="#3b82f6" opacity="0.3" />

        <!-- Letter 'E' -->
        <path
            d="M200 200 L280 200 L280 220 L220 220 L220 240 L270 240 L270 260 L220 260 L220 290 L280 290 L280 310 L200 310 Z"
            fill="#ffffff" opacity="0.95" stroke="#ffffff" stroke-width="2" />
    </g>
</svg>